<?xml version="1.0" encoding="UTF-8" standalone="no"?>
<svg
   xmlns:a="http://ns.adobe.com/AdobeSVGViewerExtensions/3.0/"
   xmlns:dc="http://purl.org/dc/elements/1.1/"
   xmlns:cc="http://creativecommons.org/ns#"
   xmlns:rdf="http://www.w3.org/1999/02/22-rdf-syntax-ns#"
   xmlns:svg="http://www.w3.org/2000/svg"
   xmlns="http://www.w3.org/2000/svg"
   xmlns:xlink="http://www.w3.org/1999/xlink"
   xmlns:sodipodi="http://sodipodi.sourceforge.net/DTD/sodipodi-0.dtd"
   xmlns:inkscape="http://www.inkscape.org/namespaces/inkscape"
   inkscape:output_extension="org.inkscape.output.svg.inkscape"
   version="1.0"
   sodipodi:docname="applications-office.svg"
   inkscape:version="1.0 (4035a4f, 2020-05-01)"
   sodipodi:version="0.32"
   id="svg2"
   viewBox="0 0 128 128"
   height="256"
   width="256"
   overflow="visible"
   enable-background="new 0 0 128 128">
  <metadata
     id="metadata127">
    <rdf:RDF>
      <cc:Work>
        <dc:format>image/svg+xml</dc:format>
        <dc:type
           rdf:resource="http://purl.org/dc/dcmitype/StillImage" />
      </cc:Work>
    </rdf:RDF>
  </metadata>
  <defs
     id="defs125">
    <linearGradient
       id="linearGradient917"
       inkscape:collect="always">
      <stop
         id="stop913"
         stop-color="#ffffff"
         stop-opacity="1" />
      <stop
         id="stop915"
         offset="1"
         stop-color="#c6bd9d"
         stop-opacity="1" />
    </linearGradient>
    <linearGradient
       id="linearGradient909"
       gradientUnits="userSpaceOnUse"
       x1="9.05"
       y1="73.32"
       x2="64.882"
       y2="41.24"
       gradientTransform="matrix(0.98,-0.1991,0.1991,0.98,-9.8206,7.9037)">
      <stop
         id="stop905"
         stop-color="#cf8100"
         stop-opacity="1" />
      <stop
         offset="1"
         id="stop907"
         stop-color="#533700"
         stop-opacity="1" />
      <a:midPointStop
         offset="0"
         stop-color="#CF0000" />
      <a:midPointStop
         offset="0.5"
         stop-color="#CF0000" />
      <a:midPointStop
         offset="1"
         stop-color="#7C0000" />
    </linearGradient>
    <linearGradient
       gradientTransform="matrix(0.98,-0.1991,0.1991,0.98,-9.8206,7.9037)"
       y2="41.24"
       x2="64.882"
       y1="73.32"
       x1="9.05"
       gradientUnits="userSpaceOnUse"
       id="XMLID_8_">
      <stop
         id="stop82"
         stop-color="#eda834"
         stop-opacity="1" />
      <stop
         id="stop84"
         offset="1"
         stop-color="#7c5300"
         stop-opacity="1" />
      <a:midPointStop
         offset="0"
         stop-color="#CF0000" />
      <a:midPointStop
         offset="0.5"
         stop-color="#CF0000" />
      <a:midPointStop
         offset="1"
         stop-color="#7C0000" />
    </linearGradient>
    <linearGradient
       gradientTransform="matrix(4.35e-2,0.999,0.999,-4.35e-2,195.5273,-254.0172)"
       y2="-164.77"
       x2="316.3"
       y1="-174.39"
       x1="306.67"
       gradientUnits="userSpaceOnUse"
       id="XMLID_9_">
      <stop
         id="stop89"
         stop-color="#F8F1DC" />
      <stop
         id="stop91"
         offset="1"
         stop-color="#D6A84A" />
      <a:midPointStop
         offset="0"
         stop-color="#F8F1DC" />
      <a:midPointStop
         offset="0.5"
         stop-color="#F8F1DC" />
      <a:midPointStop
         offset="1"
         stop-color="#D6A84A" />
    </linearGradient>
    <linearGradient
       gradientTransform="matrix(0.98,-0.1991,0.1991,0.98,-9.8206,7.9037)"
       y2="44.09"
       x2="55.843"
       y1="44.09"
       x1="63.63"
       gradientUnits="userSpaceOnUse"
       id="XMLID_12_">
      <stop
         id="stop112"
         stop-color="#4b4b4b"
         stop-opacity="1"
         style="stop-color:#000000;stop-opacity:1" />
      <stop
         id="stop114"
         offset="1"
         stop-color="#4c4c4c"
         stop-opacity="1"
         style="stop-color:#767676;stop-opacity:1" />
      <a:midPointStop
         offset="0"
         stop-color="#7C0000" />
      <a:midPointStop
         offset="0.5"
         stop-color="#7C0000" />
      <a:midPointStop
         offset="1"
         stop-color="#663333" />
    </linearGradient>
    <linearGradient
       y2="-164.77"
       x2="316.3"
       y1="-174.39"
       x1="306.67"
       gradientTransform="matrix(-0.06047185,1.415584,-1.388767,-0.06163955,-145.57432,-373.30159)"
       gradientUnits="userSpaceOnUse"
       id="linearGradient3222"
       xlink:href="#XMLID_9_"
       inkscape:collect="always" />
    <linearGradient
       y2="-201.15462"
       x2="331.91132"
       y1="-199.52399"
       x1="319.38541"
       gradientTransform="matrix(-0.06047185,1.415584,-1.388767,-0.06163955,-145.57432,-373.30159)"
       gradientUnits="userSpaceOnUse"
       id="linearGradient3224"
       xlink:href="#XMLID_8_"
       inkscape:collect="always" />
    <linearGradient
       spreadMethod="reflect"
       y2="-173.48"
       x2="310.34"
       y1="-180.08"
       x1="302.32"
       gradientTransform="matrix(-0.06047185,1.415584,-1.388767,-0.06163955,-145.57432,-373.30159)"
       gradientUnits="userSpaceOnUse"
       id="linearGradient3226"
       xlink:href="#linearGradient909"
       inkscape:collect="always" />
    <linearGradient
       y2="42.786209"
       x2="59.983963"
       y1="45.067974"
       x1="61.244804"
       gradientTransform="matrix(-1.423093,-0.294704,-0.289121,1.450573,143.80671,-3.9152882)"
       gradientUnits="userSpaceOnUse"
       id="linearGradient3228"
       xlink:href="#XMLID_12_"
       inkscape:collect="always"
       spreadMethod="reflect" />
    <filter
       height="1.0277503"
       y="-0.013875156"
       width="1.0281207"
       x="-0.014060351"
       id="filter4344"
       inkscape:collect="always"
       color-interpolation-filters="sRGB">
      <feGaussianBlur
         id="feGaussianBlur4346"
         inkscape:collect="always"
         stdDeviation="0.54693147" />
    </filter>
    <filter
       height="1.0647126"
       y="-0.032356317"
       width="1.0607719"
       x="-0.030385942"
       id="filter4352"
       inkscape:collect="always"
       color-interpolation-filters="sRGB">
      <feGaussianBlur
         id="feGaussianBlur4354"
         inkscape:collect="always"
         stdDeviation="0.97876023" />
    </filter>
    <filter
       height="1.0573019"
       y="-0.028650975"
       width="1.0470734"
       x="-0.023536691"
       id="filter4219"
       inkscape:collect="always"
       color-interpolation-filters="sRGB">
      <feGaussianBlur
         id="feGaussianBlur4221"
         inkscape:collect="always"
         stdDeviation="0.72265885" />
    </filter>
    <linearGradient
       spreadMethod="reflect"
       gradientUnits="userSpaceOnUse"
       y2="8.849"
       x2="92.36"
       y1="14.07"
       x1="87.08"
       id="linearGradient919"
       xlink:href="#linearGradient917"
       inkscape:collect="always" />
  </defs>
  <sodipodi:namedview
     inkscape:document-rotation="0"
     inkscape:window-maximized="1"
     showgrid="false"
     height="256"
     width="256"
     inkscape:window-y="0"
     inkscape:window-x="0"
     inkscape:current-layer="svg2"
     inkscape:cy="128"
     inkscape:cx="128"
     inkscape:zoom="3.5351562"
     id="base"
     pagecolor="#ffffff"
     bordercolor="#666666"
     borderopacity="1.0"
     inkscape:pageopacity="0.0"
     inkscape:pageshadow="2"
     inkscape:window-width="1920"
     inkscape:window-height="1056" />
  <path
     sodipodi:nodetypes="cccccc"
     id="rect2438"
     d="m 15.058824,6.2745099 h 72 l 13.019606,10.5971601 0,104.54009 H 15.058824 Z"
     stroke-dasharray="none"
     stroke-opacity="1"
     fill="#e3ddc6"
     stroke="#d4cda3"
     stroke-linejoin="round"
     fill-opacity="1"
     stroke-linecap="round"
     stroke-width="1.2"
     stroke-miterlimit="4" />
  <g
     id="Layer_2"
     stroke="black" />
  <path
     d="M 5.7222989,116.41845 V 21.81515 H 99.079539 L 5.7222989,116.41845 M 18.353009,82.554247 C 33.142534,67.572972 42.975558,57.606251 61.791218,38.541944 c -20.842974,0 -33.270957,-0.0029 -43.438209,0 -0.002,12.810623 0,23.782866 0,44.012303 z"
     id="path3314"
     inkscape:connector-curvature="0"
     opacity="1"
     stroke-opacity="0.232"
     fill="#000000"
     overflow="visible"
     filter="url(#filter4344)"
     stroke="none"
     fill-opacity="0.8"
     style="filter:url(#filter4344)" />
  <path
     d="M 10.790385,112.71418 V 17.99251 h 94.781755 l -94.781755,94.72167 m 12.82344,-33.906577 c 15.0152,-15.00002 24.998254,-24.97921 44.101017,-44.067371 -21.16101,0 -33.778627,-0.0029 -44.101017,0 -0.002,12.826651 0,23.812622 0,44.067371 z"
     id="path61"
     inkscape:connector-curvature="0"
     opacity="0.633"
     stroke-dasharray="none"
     stroke-opacity="1"
     fill="#ffffff"
     stroke="#a8a8a8"
     fill-opacity="1"
     stroke-width="0.899"
     stroke-miterlimit="4" />
  <path
     id="path73"
     d="m 39.694241,37.95072 c 20.391008,6.681261 24.084621,7.891599 24.871724,8.549963 -0.04298,-0.06884 -0.100689,-0.166469 -0.100689,-0.166469 L 113.8293,91.528483 c 2.62531,2.413164 -0.20138,8.058068 -3.93798,12.286107 -3.69238,4.1905 -8.90249,7.6638 -11.60762,5.39082 L 48.870561,63.785851 48.816531,63.477946 38.882582,41.7482 37.546585,37.326151 39.694239,37.95072 Z"
     inkscape:connector-curvature="0"
     fill="#000000"
     filter="url(#filter4352)"
     stroke="none"
     fill-opacity="0.795"
     style="filter:url(#filter4352)" />
  <path
     sodipodi:nodetypes="cccccccc"
     id="path93"
     d="m 65.685553,45.875939 -24.363897,-8.938444 11.439604,23.689426 0.09592,-0.107692 c 0.05144,0.162955 0.115383,0.321659 0.202963,0.456275 l -0.07646,0.07935 13.15923,-14.877096 -0.457362,-0.301821 z"
     inkscape:connector-curvature="0"
     fill="url(#linearGradient3222)"
     stroke="none" />
  <path
     style="fill:url(#linearGradient3224)"
     sodipodi:nodetypes="csscsc"
     id="path100"
     d="m 115.87997,105.26529 c 3.61162,-4.09088 5.24817,-8.582802 3.66306,-10.046535 -1.85867,-1.716344 -4.68188,0.102835 -8.68136,4.102888 -5.6766,5.677387 -4.47509,10.784127 -4.47509,10.784127 0,0 -1.32411,-1.62566 0.0653,-0.0808 1.19967,1.33388 5.81086,-0.67166 9.42805,-4.75971 z"
     inkscape:connector-curvature="0"
     fill="url(#linearGradient3224)"
     stroke="none"
     fill-opacity="1" />
  <path
     id="path109"
     d="m 106.80919,110.28573 c -1.13298,-1.12935 -0.49629,-3.90526 1.40128,-6.93339 0.62835,-1.00465 1.40128,-2.03906 2.29237,-3.04655 0.8466,-0.960727 1.72518,-1.796758 2.59542,-2.520846 2.80395,-2.330967 5.5231,-3.315782 6.76451,-2.264368 l 0.0153,-0.017 -53.753217,-49.382492 c -1.445764,-0.415182 -4.1524,0.38259 -6.618539,2.444327 -0.841046,0.707083 -1.697382,1.524693 -2.513405,2.455663 -0.917504,1.032994 -1.709893,2.095745 -2.349366,3.130156 -1.919807,3.089062 -2.683004,6.059097 -1.470786,7.174277 0.280811,0.256477 1.493029,1.367406 1.537514,1.395746 l 51.959909,47.718937 0.13902,-0.15445 z"
     inkscape:connector-curvature="0"
     fill="url(#linearGradient3226)"
     stroke="none"
     fill-opacity="1" />
  <path
     id="path116"
     d="m 52.077312,41.126948 -10.761786,-3.903226 4.523409,9.38432 c 0,0 0.07987,-1.385444 2.025729,-3.386644 2.564474,-2.650997 4.212648,-2.09445 4.212648,-2.09445 z"
     inkscape:connector-curvature="0"
     opacity="0.8"
     fill="url(#linearGradient3228)"
     stroke="none"
     style="fill:url(#linearGradient3228)" />
  <path
     d="M 128,128 L 0,128 L 0,0 L 128,0 L 128,128 z "
     id="path122"
     fill="none"
     stroke="none" />
  <g
     id="text4330"
     transform="matrix(0.5,0,0,0.5,33.48686,-24.087116)"
     font-style="normal"
     word-spacing="0"
     line-height="125%"
     font-weight="bold"
     font-stretch="normal"
     letter-spacing="0"
     font-variant="normal"
     font-size="7.5"
     stroke-opacity="1"
     font-family="STIX"
     fill="#000000"
     stroke="none"
     stroke-linejoin="miter"
     fill-opacity="1"
     stroke-linecap="butt"
     stroke-width="1">
    <path
       d="m -56.13327,39.467617 0,-0.1875 c -0.3075,0 -0.4425,-0.165 -0.825,-1.0725 l -1.665,-3.915 -0.21,0 -1.6575,4.0875 c -0.285,0.705 -0.3975,0.84 -0.7425,0.9 l 0,0.1875 1.515,0 0,-0.1875 c -0.4425,-0.03 -0.6075,-0.1125 -0.6075,-0.3075 0,-0.18 0.1425,-0.495 0.2325,-0.7275 l 0.0975,-0.255 1.6875,0 c 0.255,0.5925 0.345,0.855 0.345,1.02 0,0.165 -0.0975,0.225 -0.345,0.2475 l -0.24,0.0225 0,0.1875 2.415,0 z m -2.2875,-1.77 -1.4625,0 0.705,-1.8225 0.7575,1.8225 z"
       id="path4335"
       inkscape:connector-curvature="0" />
    <path
       d="m -55.760848,34.397617 0,0.1875 c 0.525,0.045 0.63,0.15 0.63,0.735 l 0,3.2025 c 0,0.3825 -0.045,0.5925 -0.2925,0.69 -0.0825,0.0375 -0.195,0.0525 -0.3375,0.0675 l 0,0.1875 2.4975,0 0,-0.1875 c -0.5925,-0.075 -0.6525,-0.1425 -0.6525,-0.645 l 0,-1.44 c 0.99,-0.0075 1.245,-0.03 1.5675,-0.15 0.6225,-0.2325 0.9675,-0.69 0.9675,-1.29 0,-0.915 -0.765,-1.3575 -2.0175,-1.3575 l -2.3625,0 z m 1.845,0.525 c 0,-0.1725 0.1275,-0.2625 0.375,-0.2625 0.6225,0 0.87,0.345 0.87,1.1775 0,0.8325 -0.3075,1.0875 -1.245,1.095 l 0,-2.01 z"
       id="path4337"
       inkscape:connector-curvature="0" />
  </g>
  <path
     inkscape:connector-curvature="0"
     id="path4205"
     d="M 41.865194,37.056353 62.51492,46.956905 115.5536,95.469615 112.15912,97.59116 58.979005,49.644198 Z"
     stroke-opacity="1"
     fill="#d9d9d9"
     filter="url(#filter4219)"
     fill-rule="evenodd"
     stroke="none"
     stroke-linejoin="miter"
     fill-opacity="0.8"
     stroke-linecap="butt"
     stroke-width="0.5"
     style="filter:url(#filter4219)" />
  <path
     d="M 77.174571,21.842244 87.058824,6.2745099 100.07843,16.87167 C 97.737003,12.898118 84.910157,16.230972 77.174571,21.842244 Z"
     id="path911"
     sodipodi:nodetypes="cccc"
     stroke-dasharray="none"
     stroke-opacity="1"
     fill="url(#linearGradient919)"
     stroke="#d4cda3"
     stroke-linejoin="round"
     fill-opacity="1"
     stroke-linecap="round"
     stroke-width="1.2"
     stroke-miterlimit="4" />
</svg>
